<svg xmlns="http://www.w3.org/2000/svg" version="1.1" xmlns:xlink="http://www.w3.org/1999/xlink" viewBox="0 0 200 200"><rect width="200" height="200" fill="url('#gradient')"></rect><defs><linearGradient id="gradient" gradientTransform="rotate(45 0.5 0.5)"><stop offset="0%" stop-color="#0ce8c7"></stop><stop offset="100%" stop-color="#354a62"></stop></linearGradient></defs><g><g fill="#1b3855" transform="matrix(2.542695544212995,0,0,2.542695544212995,8.403884508393034,118.07022687105791)" stroke="#0e5278" stroke-width="0.2"><path d="M8.41-3.78L8.41-3.78Q8.41-4.53 7.88-4.95Q7.34-5.37 6.01-5.82Q4.67-6.27 3.82-6.69L3.82-6.69Q1.05-8.05 1.05-10.42L1.05-10.42Q1.05-11.60 1.74-12.50Q2.43-13.41 3.69-13.91Q4.95-14.41 6.52-14.41L6.52-14.41Q8.06-14.41 9.27-13.87Q10.49-13.32 11.16-12.31Q11.84-11.30 11.84-10L11.84-10L8.42-10Q8.42-10.87 7.89-11.35Q7.35-11.83 6.45-11.83L6.45-11.83Q5.53-11.83 5.00-11.42Q4.46-11.02 4.46-10.39L4.46-10.39Q4.46-9.84 5.05-9.40Q5.63-8.96 7.11-8.48Q8.58-8.01 9.53-7.46L9.53-7.46Q11.84-6.13 11.84-3.80L11.84-3.80Q11.84-1.93 10.43-0.87Q9.02 0.20 6.57 0.20L6.57 0.20Q4.84 0.20 3.44-0.42Q2.04-1.04 1.33-2.12Q0.63-3.20 0.63-4.61L0.63-4.61L4.06-4.61Q4.06-3.47 4.65-2.92Q5.24-2.38 6.57-2.38L6.57-2.38Q7.42-2.38 7.92-2.75Q8.41-3.12 8.41-3.78ZM22.50 0L21.67-2.66L16.97-2.66L16.15 0L12.49 0L17.71-14.22L20.93-14.22L26.18 0L22.50 0ZM19.32-10.23L17.79-5.30L20.85-5.30L19.32-10.23ZM39.09-14.22L39.09 0L35.68 0L30.64-8.85L30.64 0L27.22 0L27.22-14.22L30.64-14.22L35.67-5.37L35.67-14.22L39.09-14.22ZM45.94 0L41.26 0L41.26-14.22L45.84-14.22Q47.72-14.22 49.23-13.36Q50.73-12.51 51.58-10.95Q52.42-9.39 52.43-7.46L52.43-7.46L52.43-6.81Q52.43-4.85 51.61-3.31Q50.78-1.76 49.28-0.88Q47.78-0.01 45.94 0L45.94 0ZM45.84-11.57L44.69-11.57L44.69-2.64L45.88-2.64Q47.35-2.64 48.14-3.69Q48.94-4.74 48.94-6.81L48.94-6.81L48.94-7.42Q48.94-9.48 48.14-10.53Q47.35-11.57 45.84-11.57L45.84-11.57ZM57.84-14.22L57.84 0L54.42 0L54.42-14.22L57.84-14.22ZM65.84-4.82L63.65-4.82L63.65 0L60.22 0L60.22-14.22L65.90-14.22Q67.53-14.22 68.78-13.62Q70.04-13.02 70.73-11.91Q71.42-10.80 71.42-9.39L71.42-9.39Q71.42-7.31 69.93-6.07Q68.44-4.82 65.84-4.82L65.84-4.82ZM63.65-11.57L63.65-7.47L65.90-7.47Q66.89-7.47 67.42-7.97Q67.94-8.47 67.94-9.38L67.94-9.38Q67.94-10.37 67.40-10.97Q66.87-11.56 65.94-11.57L65.94-11.57L63.65-11.57Z"></path></g></g></svg>